<?xml version="1.0" standalone="no"?>
<!DOCTYPE svg PUBLIC "-//W3C//DTD SVG 20010904//EN"
 "http://www.w3.org/TR/2001/REC-SVG-20010904/DTD/svg10.dtd">
<svg version="1.0" xmlns="http://www.w3.org/2000/svg"
 width="1000.000000pt" height="1000.000000pt" viewBox="0 0 1000.000000 1000.000000"
 preserveAspectRatio="xMidYMid meet">
<metadata>
Created by potrace 1.11, written by Peter Selinger 2001-2013
</metadata>
<g transform="translate(0.000000,1000.000000) scale(0.100000,-0.100000)"
fill="#000000" stroke="none">
<path d="M0 5000 l0 -5000 5000 0 5000 0 0 5000 0 5000 -5000 0 -5000 0 0
-5000z m3395 2189 c467 -40 814 -220 1061 -549 146 -194 259 -498 290 -777 l7
-63 -182 0 c-137 0 -183 3 -185 13 -2 6 -13 64 -25 127 -94 498 -357 801 -786
906 -225 54 -497 54 -706 -2 -440 -116 -768 -509 -878 -1050 -43 -209 -46
-270 -46 -799 0 -439 2 -527 18 -630 52 -350 161 -617 342 -842 250 -311 615
-443 1083 -393 482 52 772 278 917 713 33 100 75 286 75 333 l0 24 186 0 187
0 -7 -52 c-55 -437 -242 -799 -530 -1022 -258 -201 -554 -298 -951 -313 -251
-9 -471 25 -669 104 -557 221 -916 753 -1008 1493 -9 74 -13 252 -13 600 0
536 6 610 61 858 201 900 865 1399 1759 1321z m2235 -1009 l0 -960 1215 0
1215 0 2 958 3 957 183 3 182 2 0 -2135 0 -2135 -185 0 -185 0 0 1020 0 1020
-1215 0 -1215 0 0 -1020 0 -1020 -180 0 -180 0 0 2135 0 2135 180 0 180 0 0
-960z"/>
</g>
</svg>
